<svg width="74" height="22" viewBox="0 0 74 22" fill="none" xmlns="http://www.w3.org/2000/svg">
<path d="M13.7426 6.77838C13.6849 6.6991 13.4828 6.55045 13.1363 6.33243C12.7899 6.11441 12.3568 5.88649 11.8371 5.64865C11.3175 5.39099 10.7497 5.18288 10.1338 5.02432C9.51784 4.84594 8.90192 4.75676 8.286 4.75676C6.59223 4.75676 5.74535 5.34144 5.74535 6.51081C5.74535 7.22432 6.11105 7.72973 6.84245 8.02703C7.5931 8.32432 8.66133 8.68108 10.0471 9.0973C11.356 9.47387 12.4819 9.90991 13.4251 10.4054C14.3874 10.8811 15.1285 11.5252 15.6481 12.3378C16.1678 13.1306 16.4277 14.1811 16.4277 15.4892C16.4277 16.6784 16.2159 17.6892 15.7925 18.5216C15.369 19.3342 14.7916 19.9982 14.0602 20.5135C13.3288 21.009 12.5012 21.3757 11.5773 21.6135C10.6727 21.8315 9.72956 21.9405 8.74794 21.9405C7.2274 21.9405 5.68761 21.7126 4.12857 21.2568C2.56953 20.7811 1.19334 20.1369 0 19.3243L2.07872 15.073C2.15571 15.1721 2.40592 15.3604 2.82937 15.6378C3.25281 15.8955 3.78211 16.173 4.41728 16.4703C5.05244 16.7676 5.74535 17.0252 6.496 17.2432C7.26589 17.4414 8.04541 17.5405 8.83455 17.5405C10.5091 17.5405 11.3463 17.0153 11.3463 15.9649C11.3463 15.4297 11.125 15.0135 10.6823 14.7162C10.2589 14.3991 9.67182 14.1315 8.92117 13.9135C8.17052 13.6757 7.32363 13.4081 6.38051 13.1108C4.49427 12.5162 3.09883 11.7928 2.1942 10.9405C1.30882 10.0883 0.866133 8.86937 0.866133 7.28378C0.866133 5.7973 1.20296 4.54865 1.87662 3.53784C2.56953 2.50721 3.4934 1.73423 4.64825 1.21892C5.80309 0.683784 7.06379 0.416216 8.43036 0.416216C9.87391 0.416216 11.2405 0.673873 12.5301 1.18919C13.8196 1.68468 14.9167 2.2 15.8214 2.73514L13.7426 6.77838Z" fill="white"/>
<path d="M28.9094 21.7027L24.9541 15.4595L23.3373 17.1541V21.7027H18.7179V1.48649L23.3373 0V12.5459L28.4764 6.09459H33.3556L27.899 12.8135L33.8175 21.7027H28.9094Z" fill="white"/>
<path d="M35.1553 21.7027V9.81081L39.7747 7.73902V21.7027H35.1553Z" fill="white"/>
<path d="M64.9633 22C63.5583 22 62.3168 21.6532 61.239 20.9595C60.1611 20.2459 59.3142 19.2748 58.6983 18.0459C58.1016 16.8171 57.8033 15.4297 57.8033 13.8838C57.8033 12.3775 58.092 11.0099 58.6694 9.78108C59.2469 8.55225 60.036 7.58108 61.0369 6.86757C62.057 6.15405 63.2118 5.7973 64.5014 5.7973C65.5793 5.7973 66.5416 6.05495 67.3885 6.57027C68.2547 7.08559 68.9187 7.77928 69.3806 8.65135V6.3027H74V21.7027H69.4095V19.3838C68.9476 20.236 68.3509 20.8901 67.6195 21.3459C66.8881 21.782 66.0027 22 64.9633 22ZM69.4095 12.5757C69.1015 11.7432 68.63 11.0793 67.9948 10.5838C67.3789 10.0883 66.7052 9.84054 65.9738 9.84054C65.3194 9.84054 64.7324 10.0387 64.2127 10.4351C63.7123 10.8117 63.3081 11.3171 63.0001 11.9514C62.7114 12.5856 62.567 13.2595 62.567 13.973C62.567 15.1225 62.9039 16.0838 63.5775 16.8568C64.2512 17.6099 65.1173 17.9865 66.1759 17.9865C66.8881 17.9865 67.504 17.7982 68.0237 17.4216C68.5626 17.0252 69.0246 16.4901 69.4095 15.8162V12.5757Z" fill="white"/>
<path d="M42.9657 21.6098V6.07137L47.585 3.79054V21.6098H42.9657Z" fill="white"/>
<path d="M50.9317 21.6098L50.9316 2.30406L55.551 0V21.6098H50.9317Z" fill="white"/>
<path d="M35.1553 0V6.91216L39.619 3.46537L35.1553 0Z" fill="white"/>
</svg>
